# xmcd
#
# Track frame offsets: 
#        150
#        16025
#        30925
#        51418
#        71208
#
# Disc length: 1263 seconds
#
# Revision: 0
# Processed by: cddbd v1.5.2PL0 Copyright (c) Steve Scherf et al.
# Submitted via: ExactAudioCopy v0.99pb1
#
DISCID=3804ed05
DTITLE=Billy's Band - Отоспимся в гробах
DYEAR=2008
DGENRE=Blues
TTITLE0=01 \\ Отоспимся в гробах (оригинальная версия)
TTITLE1=02 \\ 3 Копейки
TTITLE2=05 \\ Отоспимся в гробах (поп-версия)
TTITLE3=04 \\ Я - трава
TTITLE4=03 \\ Отоспимся в гробах (хлороформ-версия)
EXTD=
EXTT0=
EXTT1=
EXTT2=
EXTT3=
EXTT4=
PLAYORDER=
